<?xml version="1.0" encoding="utf-8"?>
<!-- Generator: Adobe Illustrator 21.0.2, SVG Export Plug-In . SVG Version: 6.00 Build 0)  -->
<svg version="1.2" baseProfile="tiny" id="Layer_1" xmlns="http://www.w3.org/2000/svg" xmlns:xlink="http://www.w3.org/1999/xlink"
	 x="0px" y="0px" viewBox="0 0 20.8 403.9" xml:space="preserve">
<g>
	<rect fill="#35C0DC" width="20.8" height="19.5"/>
	<rect y="23.5" fill="#35C0DC" width="20.8" height="7.8"/>
	<rect y="35.2" fill="#35C0DC" width="20.8" height="23.3"/>
	<rect y="62.6" fill="#35C0DC" width="20.8" height="4.9"/>
	<rect y="71.5" fill="#35C0DC" width="20.8" height="6.9"/>
	<rect y="82.4" fill="#35C0DC" width="20.8" height="16.3"/>
	<rect y="102.7" fill="#35C0DC" width="20.8" height="16.3"/>
	<rect y="130.4" fill="#35C0DC" width="20.8" height="19.5"/>
	<rect y="153.9" fill="#35C0DC" width="20.8" height="7.8"/>
	<rect y="165.6" fill="#35C0DC" width="20.8" height="23.3"/>
	<rect y="193" fill="#35C0DC" width="20.8" height="4.9"/>
	<rect y="201.8" fill="#35C0DC" width="20.8" height="6.9"/>
	<rect y="212.8" fill="#35C0DC" width="20.8" height="16.3"/>
	<rect y="239.8" fill="#35C0DC" width="20.8" height="16.3"/>
	<rect y="260.1" fill="#35C0DC" width="20.8" height="4.9"/>
	<rect y="269" fill="#35C0DC" width="20.8" height="6.9"/>
	<rect y="279.9" fill="#35C0DC" width="20.8" height="16.3"/>
	<rect y="300.2" fill="#35C0DC" width="20.8" height="16.3"/>
	<rect y="327.2" fill="#35C0DC" width="20.8" height="16.3"/>
	<rect y="347.5" fill="#35C0DC" width="20.8" height="4.9"/>
	<rect y="356.4" fill="#35C0DC" width="20.8" height="6.9"/>
	<rect y="367.3" fill="#35C0DC" width="20.8" height="16.3"/>
	<rect y="387.6" fill="#35C0DC" width="20.8" height="16.3"/>
</g>
</svg>
