<svg xmlns="http://www.w3.org/2000/svg" width="20" height="24" viewBox="0 0 20 24">
    <path fill="#12B6D0" fill-rule="nonzero" d="M19.325 7.291L12.972.609a1.28 1.28 0 0 0-.871-.374H2.808A2.61 2.61 0 0 0 .202 2.842v18.316a2.61 2.61 0 0 0 2.606 2.607h14.253a2.61 2.61 0 0 0 2.607-2.607V8.15c0-.298-.138-.643-.343-.859zm-6.35-4.86l4.606 4.845h-3.748a.86.86 0 0 1-.858-.859V2.43zm5.44 18.727c0 .746-.608 1.354-1.354 1.354H2.808a1.355 1.355 0 0 1-1.353-1.354V2.842c0-.746.607-1.354 1.353-1.354h8.914v4.929c0 1.164.947 2.112 2.111 2.112h4.581v12.63z"/>
</svg>
