<svg xmlns="http://www.w3.org/2000/svg" width="20" height="14" viewBox="0 0 20 14">
    <path fill="#12B6D0" fill-rule="evenodd" d="M0 10c0-.394.32-.714.714-.714h2.143a.714.714 0 0 1 0 1.429H.714A.714.714 0 0 1 0 10zm7.857 0c0-.394.32-.714.714-.714h10.715a.714.714 0 0 1 0 1.429H8.57A.714.714 0 0 1 7.857 10zm-.714 2.143c0 .417-.134.759-.402 1.027-.268.268-.61.401-1.027.401-.416 0-.759-.133-1.027-.401-.267-.268-.401-.61-.401-1.027V7.857c0-.417.134-.759.402-1.027.267-.268.61-.401 1.026-.401.417 0 .76.133 1.027.401.268.268.402.61.402 1.027v4.286zM0 3.57c0-.394.32-.714.714-.714H11.43a.714.714 0 0 1 0 1.429H.714A.714.714 0 0 1 0 3.57zm16.429 0c0-.394.32-.714.714-.714h2.143a.714.714 0 0 1 0 1.429h-2.143a.714.714 0 0 1-.714-.715zm-.715 2.143c0 .417-.134.76-.402 1.027-.267.268-.61.402-1.026.402-.417 0-.76-.134-1.027-.402-.268-.268-.402-.61-.402-1.027V1.43c0-.417.134-.76.402-1.027.268-.268.61-.402 1.027-.402.416 0 .759.134 1.027.402.267.268.401.61.401 1.027v4.285z"/>
</svg>
