<?xml version="1.0" encoding="utf-8"?>
<!-- Generator: Adobe Illustrator 21.0.2, SVG Export Plug-In . SVG Version: 6.00 Build 0)  -->
<svg version="1.2" baseProfile="tiny" id="Layer_1" xmlns="http://www.w3.org/2000/svg" xmlns:xlink="http://www.w3.org/1999/xlink"
	 x="0px" y="0px" viewBox="0 0 388 91.9" overflow="visible" xml:space="preserve">
<g>
	<g>
		<path fill="#7D868C" d="M175.4,58.5h0.9v11.9h-0.9V58.5z"/>
		<path fill="#7D868C" d="M180.3,63.7c0,0,0.1-0.1,0.1-0.2c0-0.1,0.2-0.2,0.3-0.4c0.2-0.2,0.4-0.3,0.6-0.5c0.2-0.1,0.5-0.3,0.9-0.4
			s0.8-0.2,1.2-0.2c1,0,1.9,0.3,2.6,1c0.7,0.7,1,1.5,1,2.5v4.8h-0.8v-4.8c0-0.8-0.3-1.4-0.8-2c-0.5-0.5-1.2-0.8-2-0.8
			c-0.8,0-1.6,0.3-2.1,0.9c-0.6,0.6-0.9,1.3-0.9,2.1v4.6h-0.8v-8.2h0.8V63.7z"/>
		<path fill="#7D868C" d="M190.8,59.5h0.7v2.7h2V63h-2v5.4c0,0.5,0.1,0.8,0.4,1.1c0.3,0.2,0.6,0.4,1,0.4c0.2,0,0.4,0,0.6-0.1
			c0.2,0,0.3-0.1,0.4-0.1l0.2-0.1v0.8c-0.4,0.2-0.8,0.3-1.2,0.2c-0.7,0-1.2-0.2-1.6-0.6c-0.4-0.4-0.6-0.9-0.6-1.6V63H189v-0.8h1.2
			c0.2,0,0.3-0.1,0.5-0.2c0.1-0.1,0.2-0.3,0.2-0.5V59.5z"/>
		<path fill="#7D868C" d="M196.5,66.7c0,0.9,0.4,1.6,1.1,2.2c0.7,0.6,1.5,0.9,2.4,0.9c0.4,0,0.7,0,1-0.1c0.3-0.1,0.6-0.2,0.8-0.4
			c0.2-0.1,0.4-0.3,0.6-0.4c0.2-0.1,0.3-0.3,0.4-0.3l0.1-0.2l0.6,0.5c0,0-0.1,0.1-0.1,0.2c-0.1,0.1-0.2,0.2-0.4,0.4
			c-0.2,0.2-0.5,0.4-0.7,0.5c-0.2,0.1-0.6,0.3-1,0.4c-0.4,0.1-0.8,0.2-1.3,0.2c-1.2,0-2.2-0.4-3-1.2c-0.9-0.8-1.3-1.8-1.3-3
			c0-1.2,0.4-2.2,1.3-3c0.8-0.8,1.8-1.2,3-1.2c1.1,0,2.1,0.4,2.9,1.2c0.8,0.8,1.2,1.8,1.2,3.1v0.3H196.5z M197.6,63.8
			c-0.7,0.6-1,1.3-1.1,2.1h6.6c0-0.9-0.4-1.6-1-2.2c-0.6-0.6-1.4-0.9-2.2-0.9C199,62.9,198.2,63.2,197.6,63.8z"/>
		<path fill="#7D868C" d="M210.9,62.9h-0.4c-0.9,0-1.6,0.3-2.2,0.8c-0.6,0.6-0.9,1.3-0.9,2.1v4.6h-0.8v-8.2h0.8v1.4
			c0,0,0.1-0.1,0.1-0.2c0-0.1,0.2-0.2,0.3-0.4c0.2-0.2,0.4-0.3,0.6-0.5c0.2-0.1,0.5-0.3,0.9-0.4c0.4-0.1,0.8-0.2,1.2-0.2h0.4V62.9z"
			/>
		<path fill="#7D868C" d="M213.8,63.7c0,0,0.1-0.1,0.1-0.2c0-0.1,0.2-0.2,0.3-0.4c0.2-0.2,0.4-0.3,0.6-0.5c0.2-0.1,0.5-0.3,0.9-0.4
			c0.4-0.1,0.8-0.2,1.2-0.2c1,0,1.9,0.3,2.6,1c0.7,0.7,1,1.5,1,2.5v4.8h-0.8v-4.8c0-0.8-0.3-1.4-0.8-2c-0.5-0.5-1.2-0.8-2-0.8
			c-0.8,0-1.6,0.3-2.1,0.9c-0.6,0.6-0.9,1.3-0.9,2.1v4.6H213v-8.2h0.8V63.7z"/>
		<path fill="#7D868C" d="M229,65.3c0-0.7-0.2-1.3-0.7-1.8c-0.5-0.5-1.1-0.7-1.8-0.7c-0.5,0-0.9,0.1-1.4,0.3
			c-0.4,0.2-0.7,0.4-0.9,0.6l-0.3,0.3l-0.6-0.5c0,0,0.1-0.1,0.1-0.2s0.2-0.2,0.4-0.4c0.2-0.2,0.4-0.3,0.6-0.4
			c0.2-0.1,0.5-0.2,0.9-0.3c0.4-0.1,0.7-0.2,1.1-0.2c0.9,0,1.7,0.3,2.4,0.9c0.6,0.6,1,1.4,1,2.3v5.1H229v-1.4c0,0-0.1,0.1-0.1,0.2
			c-0.1,0.1-0.2,0.2-0.4,0.4c-0.2,0.2-0.4,0.3-0.6,0.5c-0.2,0.1-0.5,0.3-0.9,0.4c-0.4,0.1-0.8,0.2-1.2,0.2c-0.8,0-1.5-0.2-2.1-0.7
			c-0.6-0.5-0.8-1-0.8-1.6c0-0.6,0.2-1.2,0.7-1.6c0.5-0.4,1.1-0.7,2-0.8L229,65.3z M228.1,69c0.6-0.6,0.9-1.3,0.9-2.1v-0.8l-3.3,0.5
			c-1.4,0.2-2,0.8-2,1.7c0,0.4,0.2,0.8,0.6,1.1c0.4,0.3,0.9,0.5,1.5,0.5C226.7,69.8,227.5,69.6,228.1,69z"/>
		<path fill="#7D868C" d="M233.8,59.5h0.7v2.7h2V63h-2v5.4c0,0.5,0.1,0.8,0.4,1.1c0.3,0.2,0.6,0.4,1,0.4c0.2,0,0.4,0,0.6-0.1
			c0.2,0,0.3-0.1,0.4-0.1l0.2-0.1v0.8c-0.4,0.2-0.8,0.3-1.2,0.2c-0.7,0-1.2-0.2-1.6-0.6c-0.4-0.4-0.6-0.9-0.6-1.6V63h-1.8v-0.8h1.2
			c0.2,0,0.3-0.1,0.5-0.2c0.1-0.1,0.2-0.3,0.2-0.5V59.5z"/>
		<path fill="#7D868C" d="M239.4,59c0.1-0.1,0.3-0.2,0.5-0.2c0.2,0,0.3,0.1,0.5,0.2c0.1,0.1,0.2,0.3,0.2,0.4s-0.1,0.3-0.2,0.4
			S240,60,239.9,60c-0.2,0-0.3-0.1-0.5-0.2c-0.1-0.1-0.2-0.3-0.2-0.4S239.3,59.1,239.4,59z M239.4,62.3h0.8v8.2h-0.8V62.3z"/>
		<path fill="#7D868C" d="M244.2,63.3c0.9-0.8,1.9-1.2,3.1-1.2s2.2,0.4,3.1,1.2c0.9,0.8,1.3,1.8,1.3,3s-0.4,2.2-1.3,3
			s-1.9,1.2-3.1,1.2s-2.2-0.4-3.1-1.2c-0.9-0.8-1.3-1.8-1.3-3S243.3,64.2,244.2,63.3z M249.8,63.9c-0.7-0.7-1.6-1-2.5-1
			c-1,0-1.8,0.3-2.5,1c-0.7,0.7-1.1,1.5-1.1,2.5s0.4,1.8,1.1,2.5c0.7,0.7,1.6,1,2.5,1c1,0,1.8-0.3,2.5-1c0.7-0.7,1.1-1.5,1.1-2.5
			S250.5,64.6,249.8,63.9z"/>
		<path fill="#7D868C" d="M255.2,63.7c0,0,0.1-0.1,0.1-0.2c0-0.1,0.2-0.2,0.3-0.4c0.2-0.2,0.4-0.3,0.6-0.5c0.2-0.1,0.5-0.3,0.9-0.4
			c0.4-0.1,0.8-0.2,1.2-0.2c1,0,1.9,0.3,2.6,1c0.7,0.7,1,1.5,1,2.5v4.8h-0.8v-4.8c0-0.8-0.3-1.4-0.8-2c-0.5-0.5-1.2-0.8-2-0.8
			c-0.8,0-1.6,0.3-2.1,0.9c-0.6,0.6-0.9,1.3-0.9,2.1v4.6h-0.8v-8.2h0.8V63.7z"/>
		<path fill="#7D868C" d="M270.7,65.3c0-0.7-0.2-1.3-0.7-1.8c-0.5-0.5-1.1-0.7-1.8-0.7c-0.5,0-0.9,0.1-1.4,0.3
			c-0.4,0.2-0.7,0.4-0.9,0.6l-0.3,0.3l-0.6-0.5c0,0,0.1-0.1,0.1-0.2c0.1-0.1,0.2-0.2,0.4-0.4c0.2-0.2,0.4-0.3,0.6-0.4
			c0.2-0.1,0.5-0.2,0.9-0.3c0.4-0.1,0.7-0.2,1.1-0.2c0.9,0,1.7,0.3,2.4,0.9c0.6,0.6,1,1.4,1,2.3v5.1h-0.8v-1.4c0,0-0.1,0.1-0.1,0.2
			c-0.1,0.1-0.2,0.2-0.4,0.4c-0.2,0.2-0.4,0.3-0.6,0.5c-0.2,0.1-0.5,0.3-0.9,0.4c-0.4,0.1-0.8,0.2-1.2,0.2c-0.8,0-1.5-0.2-2.1-0.7
			c-0.6-0.5-0.8-1-0.8-1.6c0-0.6,0.2-1.2,0.7-1.6c0.5-0.4,1.1-0.7,2-0.8L270.7,65.3z M269.8,69c0.6-0.6,0.9-1.3,0.9-2.1v-0.8
			l-3.3,0.5c-1.4,0.2-2,0.8-2,1.7c0,0.4,0.2,0.8,0.6,1.1c0.4,0.3,0.9,0.5,1.5,0.5C268.4,69.8,269.2,69.6,269.8,69z"/>
		<rect x="274.7" y="58.5" fill="#7D868C" width="0.9" height="11.9"/>
		<path fill="#7D868C" d="M282.7,58.5h0.9v11.9h-0.9V58.5z"/>
		<path fill="#7D868C" d="M294.2,58.5h0.8v11.9h-0.8v-1.6c0,0-0.1,0.1-0.1,0.2c-0.1,0.1-0.2,0.2-0.4,0.4c-0.2,0.2-0.4,0.4-0.7,0.5
			c-0.2,0.2-0.6,0.3-1,0.4c-0.4,0.1-0.8,0.2-1.2,0.2c-1.1,0-2-0.4-2.9-1.2c-0.8-0.8-1.3-1.8-1.3-3s0.4-2.2,1.3-3
			c0.8-0.8,1.8-1.3,2.9-1.3c0.4,0,0.8,0.1,1.2,0.2c0.4,0.1,0.7,0.3,1,0.4c0.3,0.2,0.5,0.3,0.7,0.5c0.2,0.2,0.3,0.3,0.4,0.5l0.1,0.2
			V58.5z M293.2,63.9c-0.7-0.7-1.5-1-2.4-1c-0.8,0-1.6,0.3-2.3,1c-0.7,0.7-1,1.5-1,2.5c0,1,0.3,1.8,1,2.5c0.7,0.7,1.5,1,2.3,1
			c0.9,0,1.7-0.3,2.4-1c0.7-0.7,1-1.5,1-2.5S293.8,64.6,293.2,63.9z"/>
		<path fill="#7D868C" d="M298.5,66.7c0,0.9,0.4,1.6,1.1,2.2c0.7,0.6,1.5,0.9,2.4,0.9c0.4,0,0.7,0,1-0.1c0.3-0.1,0.6-0.2,0.8-0.4
			c0.2-0.1,0.4-0.3,0.6-0.4c0.2-0.1,0.3-0.3,0.4-0.3l0.1-0.2l0.6,0.5c0,0-0.1,0.1-0.1,0.2c-0.1,0.1-0.2,0.2-0.4,0.4
			c-0.2,0.2-0.5,0.4-0.7,0.5c-0.2,0.1-0.6,0.3-1,0.4c-0.4,0.1-0.8,0.2-1.3,0.2c-1.2,0-2.2-0.4-3-1.2c-0.9-0.8-1.3-1.8-1.3-3
			c0-1.2,0.4-2.2,1.3-3c0.8-0.8,1.8-1.2,3-1.2c1.1,0,2.1,0.4,2.9,1.2c0.8,0.8,1.2,1.8,1.2,3.1v0.3H298.5z M299.6,63.8
			c-0.7,0.6-1,1.3-1.1,2.1h6.6c0-0.9-0.4-1.6-1-2.2c-0.6-0.6-1.4-0.9-2.2-0.9C301.1,62.9,300.3,63.2,299.6,63.8z"/>
		<path fill="#7D868C" d="M309.5,63.7c0,0,0.1-0.1,0.1-0.2c0-0.1,0.2-0.2,0.3-0.4c0.2-0.2,0.4-0.3,0.6-0.5c0.2-0.1,0.5-0.3,0.9-0.4
			c0.4-0.1,0.8-0.2,1.2-0.2c1,0,1.9,0.3,2.6,1c0.7,0.7,1,1.5,1,2.5v4.8h-0.8v-4.8c0-0.8-0.3-1.4-0.8-2c-0.5-0.5-1.2-0.8-2-0.8
			c-0.8,0-1.6,0.3-2.1,0.9c-0.6,0.6-0.9,1.3-0.9,2.1v4.6h-0.8v-8.2h0.8V63.7z"/>
		<path fill="#7D868C" d="M319.7,59.5h0.7v2.7h2V63h-2v5.4c0,0.5,0.1,0.8,0.4,1.1c0.3,0.2,0.6,0.4,1,0.4c0.2,0,0.4,0,0.6-0.1
			c0.2,0,0.3-0.1,0.4-0.1l0.2-0.1v0.8c-0.4,0.2-0.8,0.3-1.2,0.2c-0.7,0-1.2-0.2-1.6-0.6c-0.4-0.4-0.6-0.9-0.6-1.6V63h-1.8v-0.8h1.2
			c0.2,0,0.3-0.1,0.5-0.2c0.1-0.1,0.2-0.3,0.2-0.5V59.5z"/>
		<path fill="#7D868C" d="M325.4,59c0.1-0.1,0.3-0.2,0.5-0.2c0.2,0,0.3,0.1,0.5,0.2c0.1,0.1,0.2,0.3,0.2,0.4s-0.1,0.3-0.2,0.4
			S326,60,325.8,60c-0.2,0-0.3-0.1-0.5-0.2c-0.1-0.1-0.2-0.3-0.2-0.4S325.3,59.1,325.4,59z M325.4,62.3h0.8v8.2h-0.8V62.3z"/>
		<path fill="#7D868C" d="M330.3,59.5h0.7v2.7h2V63h-2v5.4c0,0.5,0.1,0.8,0.4,1.1c0.3,0.2,0.6,0.4,1,0.4c0.2,0,0.4,0,0.6-0.1
			c0.2,0,0.3-0.1,0.4-0.1l0.2-0.1v0.8c-0.4,0.2-0.8,0.3-1.2,0.2c-0.7,0-1.2-0.2-1.6-0.6c-0.4-0.4-0.6-0.9-0.6-1.6V63h-1.8v-0.8h1.2
			c0.2,0,0.3-0.1,0.5-0.2c0.1-0.1,0.2-0.3,0.2-0.5V59.5z"/>
		<path fill="#7D868C" d="M338.6,70.4l-3.6-8.2h0.9l3.1,7.1l3.1-7.1h0.9l-4.2,9.7c-0.3,0.7-0.7,1.3-1,1.6s-0.9,0.5-1.5,0.5
			c-0.1,0-0.3,0-0.4,0c-0.1,0-0.2-0.1-0.3-0.1l-0.1,0v-0.8c0.2,0.1,0.5,0.2,0.8,0.2c0.4,0,0.7-0.1,1-0.3c0.3-0.2,0.5-0.5,0.7-1
			L338.6,70.4z"/>
		<path fill="#7D868C" d="M350.5,60.1c1.3-1.2,2.8-1.8,4.6-1.8c0.7,0,1.3,0.1,1.9,0.3c0.6,0.2,1.1,0.4,1.5,0.6
			c0.4,0.3,0.7,0.5,1,0.8c0.3,0.2,0.5,0.5,0.6,0.6l0.2,0.3l-0.6,0.5c0-0.1-0.1-0.1-0.2-0.2s-0.3-0.3-0.5-0.5
			c-0.3-0.3-0.6-0.5-0.9-0.7c-0.3-0.2-0.8-0.4-1.3-0.5s-1.1-0.2-1.7-0.2c-1.6,0-2.9,0.5-4,1.5c-1.1,1-1.6,2.3-1.6,3.7
			c0,1.5,0.5,2.7,1.6,3.7c1.1,1,2.4,1.5,4,1.5c0.6,0,1.2-0.1,1.7-0.2c0.5-0.2,1-0.3,1.3-0.6c0.4-0.2,0.7-0.4,0.9-0.6
			c0.3-0.2,0.5-0.4,0.6-0.5l0.2-0.2l0.6,0.5c0,0.1-0.1,0.2-0.2,0.3c-0.1,0.1-0.3,0.3-0.7,0.6s-0.7,0.6-1.1,0.8
			c-0.4,0.2-0.9,0.4-1.5,0.6c-0.6,0.2-1.2,0.3-1.9,0.3c-1.8,0-3.4-0.6-4.6-1.8c-1.3-1.2-1.9-2.6-1.9-4.3
			C348.5,62.8,349.2,61.3,350.5,60.1z"/>
		<path fill="#7D868C" d="M368.6,65.3c0-0.7-0.2-1.3-0.7-1.8c-0.5-0.5-1.1-0.7-1.8-0.7c-0.5,0-0.9,0.1-1.4,0.3
			c-0.4,0.2-0.7,0.4-0.9,0.6l-0.3,0.3l-0.6-0.5c0,0,0.1-0.1,0.1-0.2c0.1-0.1,0.2-0.2,0.4-0.4c0.2-0.2,0.4-0.3,0.6-0.4
			c0.2-0.1,0.5-0.2,0.9-0.3c0.4-0.1,0.7-0.2,1.1-0.2c0.9,0,1.7,0.3,2.4,0.9c0.6,0.6,1,1.4,1,2.3v5.1h-0.8v-1.4c0,0-0.1,0.1-0.1,0.2
			c-0.1,0.1-0.2,0.2-0.4,0.4c-0.2,0.2-0.4,0.3-0.6,0.5c-0.2,0.1-0.5,0.3-0.9,0.4c-0.4,0.1-0.8,0.2-1.2,0.2c-0.8,0-1.5-0.2-2.1-0.7
			c-0.6-0.5-0.8-1-0.8-1.6c0-0.6,0.2-1.2,0.7-1.6c0.5-0.4,1.1-0.7,2-0.8L368.6,65.3z M367.6,69c0.6-0.6,0.9-1.3,0.9-2.1v-0.8
			l-3.3,0.5c-1.4,0.2-2,0.8-2,1.7c0,0.4,0.2,0.8,0.6,1.1c0.4,0.3,0.9,0.5,1.5,0.5C366.3,69.8,367,69.6,367.6,69z"/>
		<path fill="#7D868C" d="M376.9,62.9h-0.4c-0.9,0-1.6,0.3-2.2,0.8c-0.6,0.6-0.9,1.3-0.9,2.1v4.6h-0.8v-8.2h0.8v1.4
			c0,0,0.1-0.1,0.1-0.2c0-0.1,0.2-0.2,0.3-0.4c0.2-0.2,0.4-0.3,0.6-0.5c0.2-0.1,0.5-0.3,0.9-0.4c0.4-0.1,0.8-0.2,1.2-0.2h0.4V62.9z"
			/>
		<path fill="#7D868C" d="M385.5,58.5h0.8v11.9h-0.8v-1.6c0,0-0.1,0.1-0.1,0.2c-0.1,0.1-0.2,0.2-0.4,0.4c-0.2,0.2-0.4,0.4-0.7,0.5
			s-0.6,0.3-1,0.4c-0.4,0.1-0.8,0.2-1.2,0.2c-1.1,0-2-0.4-2.9-1.2c-0.8-0.8-1.3-1.8-1.3-3s0.4-2.2,1.3-3c0.8-0.8,1.8-1.3,2.9-1.3
			c0.4,0,0.8,0.1,1.2,0.2c0.4,0.1,0.7,0.3,1,0.4c0.3,0.2,0.5,0.3,0.7,0.5c0.2,0.2,0.3,0.3,0.4,0.5l0.1,0.2V58.5z M384.4,63.9
			c-0.7-0.7-1.5-1-2.4-1c-0.8,0-1.6,0.3-2.3,1c-0.7,0.7-1,1.5-1,2.5c0,1,0.3,1.8,1,2.5c0.7,0.7,1.5,1,2.3,1c0.9,0,1.7-0.3,2.4-1
			c0.7-0.7,1-1.5,1-2.5S385.1,64.6,384.4,63.9z"/>
	</g>
	<g>
		<polygon fill="#7D868C" points="216.6,22.4 197.9,49.3 179.1,22.4 175.2,22.4 175.2,53 178.5,53 178.5,27.1 196.7,53 199.1,53 
			217.2,27.1 217.2,53 220.5,53 220.5,22.4 		"/>
		<path fill="#7D868C" d="M264.6,50c-3.9,2.3-8.8,3.4-14.8,3.4c-5.9,0-10.8-1.1-14.7-3.4c-4.8-2.8-7.2-7.1-7.2-12.8
			c0-5.6,2.4-9.7,7.3-12.5c3.8-2.1,8.7-3.2,14.6-3.2c6,0,10.8,1.1,14.6,3.2c4.9,2.7,7.3,6.9,7.3,12.5C271.8,43,269.4,47.2,264.6,50z
			 M262.7,27.2c-3.2-1.8-7.5-2.7-12.8-2.7c-5,0-9.1,0.8-12.3,2.5c-4.2,2.2-6.3,5.6-6.3,10.3c0,4.5,1.9,8,5.8,10.3
			c3.3,2,7.6,3,12.8,3c5,0,9.2-0.9,12.5-2.7c4.1-2.3,6.2-5.8,6.2-10.6C268.5,32.8,266.6,29.5,262.7,27.2z"/>
		<polygon fill="#7D868C" points="313.2,22.4 313.2,49.2 283.2,22.4 279.2,22.4 279.2,53 282.5,53 282.5,26.2 312.5,53 316.5,53 
			316.5,22.4 		"/>
		<path fill="#7D868C" d="M324.2,53V22.4h3.3V53H324.2z"/>
		<path fill="#7D868C" d="M335.2,53V22.4h3.3V53H335.2z"/>
		<path fill="#7D868C" d="M385,43.5c-1,1.8-2.6,3.3-4.7,4.4c-3.3,1.8-7.4,2.7-12.5,2.7c-5.2,0-9.4-1-12.8-3
			c-3.9-2.3-5.8-5.8-5.8-10.3c0-4.7,2.1-8.1,6.3-10.3c3.2-1.7,7.3-2.5,12.3-2.5c5.3,0,9.6,0.9,12.8,2.7c1.9,1,3.3,2.4,4.2,3.9
			L388,30c-1.2-2.1-3.1-3.8-5.5-5.2c-3.8-2.1-8.7-3.2-14.6-3.2c-6,0-10.8,1.1-14.6,3.2c-4.9,2.8-7.3,6.9-7.3,12.5
			c0,5.7,2.4,9.9,7.2,12.8c3.9,2.2,8.8,3.4,14.7,3.4c6,0,10.9-1.1,14.8-3.4c2.4-1.4,4.2-3.2,5.4-5.4L385,43.5z"/>
	</g>
	<g>
		<path fill="#FFB819" d="M84.4,34.4l15.1-8.7l0,0c0,0,0,0,0,0c1-0.5,2-0.8,3.1-0.8c2.2,0,4.3,1.2,5.4,3.1l3.6,6.3
			c-2.1,1.6-3.4,4.2-3.4,7c0,4.9,4,8.9,8.9,8.9c4.9,0,8.9-4,8.9-8.9c0-4.9-4-8.9-8.9-8.9c-1,0-1.9,0.2-2.8,0.5l-3.6-6.4
			c-1.6-2.9-4.7-4.7-8-4.7c-1.7,0-3.3,0.4-4.7,1.2l0,0l-16.6,9.6L84.4,34.4z M72.1,54.1l14,8.1C85.8,63,85.6,64,85.6,65
			c0,4.9,4,8.9,8.9,8.9c2.7,0,5.1-1.2,6.7-3.1l34.3,19.8c2.9,1.7,6.4,1.7,9.3,0c2.9-1.7,4.7-4.7,4.7-8.1v-15
			c4.2-0.7,7.4-4.4,7.4-8.8c0-4.4-3.2-8-7.4-8.8V9.4c0-3.3-1.8-6.4-4.7-8.1c-2.9-1.7-6.4-1.7-9.3,0l-3.3,1.9c-1.6-2-4.1-3.3-6.9-3.3
			c-4.9,0-8.9,4-8.9,8.9s4,8.9,8.9,8.9s8.9-4,8.9-8.9c0-1-0.2-2-0.5-3L137,4c0.9-0.5,2-0.8,3.1-0.8c1.1,0,2.2,0.3,3.1,0.8
			c1.9,1.1,3.1,3.2,3.1,5.4V50c-4.2,0.7-7.4,4.4-7.4,8.8c0,4.4,3.2,8,7.4,8.8v15c0,2.2-1.2,4.3-3.1,5.4c-0.9,0.5-2,0.8-3.1,0.8
			S138,88.5,137,88l-34.2-19.7c0.4-1,0.6-2.1,0.6-3.2c0-4.9-4-8.9-8.9-8.9c-2.8,0-5.3,1.3-7,3.3l-13.9-8c-1.9-1.1-3.1-3.2-3.1-5.4
			c0-2.2,1.2-4.3,3.1-5.4l2-1.1l-3.1-1.8L72.1,38c-2.9,1.7-4.7,4.7-4.7,8.1S69.3,52.4,72.1,54.1z"/>
	</g>
	<g>
		<path fill="#00C1DE" d="M72.5,57.5l-15.1,8.7l0,0c0,0,0,0,0,0c-1,0.5-2,0.8-3.1,0.8c-2.2,0-4.3-1.2-5.4-3.1l-3.6-6.3
			c2.1-1.6,3.4-4.2,3.4-7c0-4.9-4-8.9-8.9-8.9c-4.9,0-8.9,4-8.9,8.9c0,4.9,4,8.9,8.9,8.9c1,0,1.9-0.2,2.8-0.5l3.6,6.4
			c1.6,2.9,4.7,4.7,8,4.7c1.7,0,3.3-0.4,4.7-1.2l0,0l16.6-9.6L72.5,57.5z M84.7,37.8l-14-8.1c0.3-0.9,0.5-1.9,0.5-2.9
			c0-4.9-4-8.9-8.9-8.9c-2.7,0-5.1,1.2-6.7,3.1L21.3,1.2c-2.9-1.7-6.4-1.7-9.3,0C9.2,2.9,7.4,6,7.4,9.3v15C3.2,25.1,0,28.7,0,33.1
			c0,4.4,3.2,8,7.4,8.8v40.6c0,3.3,1.8,6.4,4.7,8.1c2.9,1.7,6.4,1.7,9.3,0l3.3-1.9c1.6,2,4.1,3.3,6.9,3.3c4.9,0,8.9-4,8.9-8.9
			s-4-8.9-8.9-8.9s-8.9,4-8.9,8.9c0,1,0.2,2,0.5,3l-3.3,1.9c-0.9,0.5-2,0.8-3.1,0.8c-1.1,0-2.2-0.3-3.1-0.8
			c-1.9-1.1-3.1-3.2-3.1-5.4V41.9c4.2-0.7,7.4-4.4,7.4-8.8c0-4.4-3.2-8-7.4-8.8v-15c0-2.2,1.2-4.3,3.1-5.4c0.9-0.5,2-0.8,3.1-0.8
			s2.2,0.3,3.1,0.8L54,23.7c-0.4,1-0.6,2.1-0.6,3.2c0,4.9,4,8.9,8.9,8.9c2.8,0,5.3-1.3,7-3.3l13.9,8c1.9,1.1,3.1,3.2,3.1,5.4
			c0,2.2-1.2,4.3-3.1,5.4l-2,1.1l3.1,1.8l0.4-0.2c2.9-1.7,4.7-4.7,4.7-8.1S87.6,39.5,84.7,37.8z"/>
	</g>
</g>
</svg>
