<svg xmlns="http://www.w3.org/2000/svg" width="184" height="43" viewBox="0 0 184 43">
    <g fill="none" fill-rule="nonzero">
        <g>
            <g fill="#FCB426" transform="translate(30.556)">
                <ellipse cx="27.816" cy="4.935" rx="4.215" ry="4.093"/>
                <ellipse cx="37.615" cy="27.344" rx="4.215" ry="4.093"/>
                <ellipse cx="23.286" cy="19.363" rx="4.215" ry="4.093"/>
                <ellipse cx="13.276" cy="30.312" rx="4.215" ry="4.093"/>
                <path d="M6.638 15.372l8.324-4.912c1.791-1.023 4.109-.511 5.268 1.228 0 .103.105.103.105.205l3.161 5.833c.211.409.106.818-.316 1.023-.421.204-.843.102-1.053-.307l-3.161-5.833s0-.102-.106-.102c-.632-1.023-2.107-1.33-3.16-.716l-7.587 4.502-1.475-.92zm-3.582 2.149l1.475.819-.633.409a2.039 2.039 0 0 0-.948.92c-.843 1.331-.421 3.07.948 3.89l28.554 16.883c.422.307.949.41 1.475.41 1.581 0 2.845-1.229 2.845-2.764V4.321c0-.512-.105-1.023-.421-1.433-.843-1.33-2.634-1.74-4.004-.92L29.924 3.4c-.316.205-.843.102-1.054-.205-.21-.307-.105-.818.21-1.023L31.61.637C33.716-.59 36.455.023 37.72 2.07c.422.716.633 1.432.633 2.25v33.666c0 2.354-2.002 4.298-4.426 4.298-.842 0-1.58-.205-2.318-.614L3.056 24.786C.948 23.558.316 20.898 1.58 18.851a3.68 3.68 0 0 1 1.476-1.33z"/>
            </g>
            <ellipse cx="14.014" cy="37.474" fill="#12B6D0" rx="4.215" ry="4.093"/>
            <ellipse cx="4.215" cy="14.963" fill="#12B6D0" rx="4.215" ry="4.093"/>
            <ellipse cx="18.544" cy="22.944" fill="#12B6D0" rx="4.215" ry="4.093"/>
            <ellipse cx="28.554" cy="11.995" fill="#12B6D0" rx="4.215" ry="4.093"/>
            <path fill="#12B6D0" d="M35.192 26.935l-8.324 4.912c-1.791 1.023-4.11.511-5.268-1.228 0-.103-.106-.103-.106-.205l-3.16-5.833c-.211-.409-.106-.818.316-1.023.421-.205.842-.102 1.053.307l3.161 5.833s0 .102.106.102c.632 1.023 2.107 1.33 3.16.716l7.587-4.502 1.475.92zm3.582-2.047L37.3 24.07l.632-.512c.422-.205.738-.511.949-.92.843-1.331.421-3.07-.949-3.89L9.377 1.969c-.421-.308-.948-.41-1.475-.41-1.58 0-2.844 1.228-2.844 2.763v33.665c0 .512.105 1.023.421 1.433.843 1.33 2.634 1.74 4.004.92l2.423-1.432c.316-.205.843-.102 1.054.205.21.307.105.818-.21 1.023l-2.424 1.432c-2.108 1.228-4.742.614-6.006-1.432-.422-.716-.632-1.433-.632-2.251V4.32C3.477 1.967 5.479.023 7.902.023c.843 0 1.58.307 2.318.717l28.554 16.883c2.108 1.228 2.74 3.889 1.475 5.935-.421.41-.843.921-1.475 1.33z"/>
        </g>
        <g fill="#12B6D0">
            <path d="M96.491 26.579l-6.988-9.368v14.42h-1.877V13.948h1.669l7.3 9.58 7.302-9.58h1.669v17.685h-1.878V17.21zM125.487 29.21c-1.773 1.79-3.859 2.632-6.362 2.632s-4.59-.842-6.363-2.631c-1.773-1.79-2.607-3.895-2.607-6.422 0-2.526.834-4.631 2.607-6.42 1.773-1.79 3.86-2.632 6.363-2.632 2.503 0 4.589.842 6.362 2.631 1.773 1.79 2.608 3.895 2.608 6.421 0 2.527-.835 4.737-2.608 6.422zm-11.473-1.157c1.356 1.368 3.025 2.105 5.11 2.105 2.087 0 3.651-.737 5.111-2.105 1.46-1.369 2.087-3.158 2.087-5.264 0-2.105-.73-3.789-2.087-5.263-1.355-1.473-3.024-2.105-5.11-2.105-2.086 0-3.65.737-5.111 2.105-1.46 1.369-2.086 3.158-2.086 5.263 0 2.106.73 3.79 2.086 5.264zM147.182 13.947v17.685h-1.67L134.77 17.316v14.316h-1.878V13.947h1.67l10.742 14.316V13.947zM153.023 13.947h1.877v17.685h-1.877zM160.74 13.947h1.878v17.685h-1.877zM170.024 16.368c1.773-1.79 3.859-2.631 6.362-2.631.939 0 1.773.105 2.503.42.73.317 1.46.527 1.982.948.521.421 1.043.737 1.356 1.053.313.316.73.631.834.947l.313.421-1.251 1.158c0-.105-.105-.21-.209-.316-.104-.105-.313-.42-.73-.736s-.73-.632-1.147-.948c-.418-.316-.94-.526-1.67-.737a7.35 7.35 0 0 0-2.19-.315c-1.981 0-3.65.736-5.11 2.105-1.46 1.368-2.086 3.158-2.086 5.263s.73 3.79 2.086 5.263c1.356 1.474 3.024 2.105 5.11 2.105.73 0 1.46-.105 2.19-.315.73-.21 1.252-.421 1.67-.737.417-.316.834-.632 1.147-.842.313-.21.626-.527.73-.737l.209-.316 1.251 1.158c-.104.105-.208.21-.313.421-.104.21-.417.421-.938.842-.522.421-.94.842-1.46 1.158a7.038 7.038 0 0 1-1.982.842c-.835.21-1.67.421-2.608.421-2.503 0-4.59-.842-6.362-2.631-1.773-1.79-2.608-3.895-2.608-6.421 0-2.527 1.148-5.053 2.92-6.843z"/>
        </g>
    </g>
</svg>
