<?xml version="1.0" encoding="utf-8"?>
<!-- Generator: Adobe Illustrator 21.0.2, SVG Export Plug-In . SVG Version: 6.00 Build 0)  -->
<svg version="1.2" baseProfile="tiny" id="Layer_1" xmlns="http://www.w3.org/2000/svg" xmlns:xlink="http://www.w3.org/1999/xlink"
	 x="0px" y="0px" viewBox="0 0 81.9 91.7" overflow="auto" xml:space="preserve">
<path fill="#08BFDA" d="M77.2,37.7L14,1.3C7.8-2.3,0,2.2,0,9.4v72.9c0,7.2,7.8,11.7,14,8.1l63.2-36.5C83.4,50.3,83.4,41.3,77.2,37.7
	z"/>
<path fill-rule="evenodd" fill="#FFFFFF" d="M37.1,43.4c-2.5,0-5.1,0-7.6,0c-0.7,0-1.5,0-2.2,0c-0.2,0-0.4,0.2-0.4,0.3
	c0,1.5,0,2.9,0,4.5c2.1,0,4.1,0,6.2,0c-0.1,0.3-0.1,0.5-0.2,0.7c-0.9,2.8-3.9,4.2-7,3.7c-3.9-0.6-6.3-4.2-5.6-8.1
	c0.1-0.6,0.3-1.1,0.5-1.6c1.3-2.8,4.5-4.5,7.6-3.8c1.1,0.2,2.1,0.8,2.9,1.5c1.1-1.1,2.2-2.2,3.4-3.4c-0.1-0.1-0.2-0.2-0.3-0.2
	c-2.7-2.3-5.9-3.2-9.4-2.6c-5.1,0.8-8.8,4.8-9.5,9.5c-0.4,2-0.2,4.1,0.6,6.2C18,55,23,58,28.3,57.4c2.6-0.3,4.9-1.2,6.7-3.1
	c2.7-2.9,3.4-6.3,3-10.1C37.9,43.5,37.7,43.4,37.1,43.4L37.1,43.4z M48.6,43.8c-0.2,0-0.5,0-0.8,0c0-0.1,0-0.1,0-0.2
	c0-0.2,0-0.4,0-0.5c0-1,0-1.9,0-2.9c0-0.2-0.2-0.4-0.3-0.4c-0.9,0-1.8,0-2.7,0c0,1.2,0,2.3,0,3.4c0,0.2,0,0.4,0,0.6
	c-1.4,0-2.7,0-4.1,0c0,0.3,0,0.5,0,0.7c0,0.7,0.1,1.5,0.1,2.2c0.7,0,1.4,0.1,2.2,0.1c0.6,0,1.2,0,1.9,0c0,1.4,0,2.7,0,4
	c1,0,1.9,0,3,0c0-1.3,0-2.6,0-4c1.4,0,2.7,0,4,0c0-0.8,0-1.5,0-2.3c0-0.2,0-0.5,0-0.7C50.8,43.8,49.7,43.8,48.6,43.8L48.6,43.8z"/>
</svg>
