<?xml version="1.0" encoding="utf-8"?>
<!-- Generator: Adobe Illustrator 21.0.2, SVG Export Plug-In . SVG Version: 6.00 Build 0)  -->
<svg version="1.2" baseProfile="tiny" id="Layer_1" xmlns="http://www.w3.org/2000/svg" xmlns:xlink="http://www.w3.org/1999/xlink"
	 x="0px" y="0px" viewBox="0 0 81.9 91.7" overflow="auto" xml:space="preserve">
<path fill="#08BFDA" d="M77.2,37.7L14,1.3C7.8-2.3,0,2.2,0,9.4v72.9c0,7.2,7.8,11.7,14,8.1l63.2-36.5C83.4,50.3,83.4,41.3,77.2,37.7
	z"/>
<path fill-rule="evenodd" fill="#FFFFFF" d="M49.2,36.5c-1.1,0.5-2.3,0.8-3.6,1c1.3-0.8,2.3-2,2.8-3.4c-1.2,0.7-2.6,1.2-4,1.5
	c-1.1-1.2-2.8-2-4.6-2c-3.4,0-6.3,2.8-6.3,6.2c0,0.5,0.1,1,0.2,1.4c-5.2-0.2-9.9-2.7-12.9-6.5c-0.5,0.9-0.9,2-0.9,3.1
	c0,2.2,1.1,4,2.8,5.1c-1,0-2-0.3-2.8-0.8c0,0,0,0,0,0.1c0,0.8,0.1,1.5,0.4,2.2c0.8,1.9,2.5,3.4,4.6,3.8c-0.5,0.1-1.1,0.2-1.7,0.2
	c-0.4,0-0.8,0-1.2-0.1c0.8,2.5,3.1,4.2,5.9,4.3c-2.2,1.7-4.8,2.6-7.8,2.6c-0.5,0-1,0-1.5-0.1c2.8,1.7,6.1,2.8,9.6,2.8
	c9.8,0,15.9-6.8,17.4-13.8c0.3-1.3,0.4-2.5,0.4-3.7c0-0.3,0-0.5,0-0.8C47.3,38.8,48.3,37.7,49.2,36.5L49.2,36.5z"/>
</svg>
