<?xml version="1.0" encoding="utf-8"?>
<!-- Generator: Adobe Illustrator 21.0.2, SVG Export Plug-In . SVG Version: 6.00 Build 0)  -->
<svg version="1.2" baseProfile="tiny" id="Layer_1" xmlns="http://www.w3.org/2000/svg" xmlns:xlink="http://www.w3.org/1999/xlink"
	 x="0px" y="0px" viewBox="0 0 81.9 91.7" xml:space="preserve">
<path fill="#FCB33E" d="M4.7,53.9l63.2,36.5c6.2,3.6,14-0.9,14-8.1V9.4c0-7.2-7.8-11.7-14-8.1L4.7,37.7C-1.6,41.3-1.6,50.3,4.7,53.9
	z"/>
<path fill-rule="evenodd" fill="#FFFFFF" d="M42.9,45.8c0-4.7,3.8-8.5,8.5-8.5c4.7,0,8.5,3.8,8.5,8.5c0,4.7-3.8,8.5-8.5,8.5
	C46.8,54.3,42.9,50.5,42.9,45.8L42.9,45.8z M60.3,29.2H42.7c-4.3,0-7.9,3.5-7.9,7.9v17.6c0,4.3,3.6,7.9,7.9,7.9h17.6
	c4.3,0,7.9-3.6,7.9-7.9V37C68.1,32.7,64.6,29.2,60.3,29.2L60.3,29.2z M42.7,31.1h17.6c3.3,0,5.9,2.7,5.9,5.9v17.6
	c0,3.3-2.7,5.9-5.9,5.9H42.7c-3.3,0-5.9-2.7-5.9-5.9V37C36.8,33.8,39.4,31.1,42.7,31.1L42.7,31.1z M62,33.6c-1,0-1.7,0.8-1.7,1.7
	c0,1,0.8,1.7,1.7,1.7c1,0,1.7-0.8,1.7-1.7C63.7,34.4,63,33.6,62,33.6L62,33.6z M62.2,45.8c0-5.9-4.8-10.8-10.8-10.8
	c-5.9,0-10.8,4.8-10.8,10.8c0,5.9,4.8,10.8,10.8,10.8C57.4,56.6,62.2,51.8,62.2,45.8L62.2,45.8z"/>
</svg>
